<mxfile host="65bd71144e">
    <diagram id="FW_V25If0AhyIlpKmdC8" name="Page-1">
        <mxGraphModel dx="1087" dy="867" grid="1" gridSize="10" guides="1" tooltips="1" connect="1" arrows="1" fold="1" page="1" pageScale="1" pageWidth="850" pageHeight="1100" math="0" shadow="0">
            <root>
                <mxCell id="0"/>
                <mxCell id="1" parent="0"/>
                <mxCell id="2" value="Level 1" style="text;strokeColor=none;align=center;fillColor=none;html=1;verticalAlign=middle;whiteSpace=wrap;rounded=0;fontSize=16;fontStyle=1" vertex="1" parent="1">
                    <mxGeometry x="40" y="120" width="130" height="30" as="geometry"/>
                </mxCell>
                <mxCell id="3" value="Pre Requisites" style="text;strokeColor=none;align=center;fillColor=none;html=1;verticalAlign=middle;whiteSpace=wrap;rounded=0;fontSize=15;" vertex="1" parent="1">
                    <mxGeometry x="40" y="150" width="130" height="30" as="geometry"/>
                </mxCell>
                <mxCell id="6" value="Level 2" style="text;strokeColor=none;align=center;fillColor=none;html=1;verticalAlign=middle;whiteSpace=wrap;rounded=0;fontSize=16;fontStyle=1" vertex="1" parent="1">
                    <mxGeometry x="40" y="299" width="130" height="30" as="geometry"/>
                </mxCell>
                <mxCell id="7" value="DevOps Fundamentals" style="text;strokeColor=none;align=center;fillColor=none;html=1;verticalAlign=middle;whiteSpace=wrap;rounded=0;fontSize=15;" vertex="1" parent="1">
                    <mxGeometry x="40" y="329" width="160" height="30" as="geometry"/>
                </mxCell>
                <mxCell id="8" value="Level 3" style="text;strokeColor=none;align=center;fillColor=none;html=1;verticalAlign=middle;whiteSpace=wrap;rounded=0;fontSize=16;fontStyle=1" vertex="1" parent="1">
                    <mxGeometry x="40" y="509" width="130" height="30" as="geometry"/>
                </mxCell>
                <mxCell id="9" value="DevOps Core" style="text;strokeColor=none;align=center;fillColor=none;html=1;verticalAlign=middle;whiteSpace=wrap;rounded=0;fontSize=15;" vertex="1" parent="1">
                    <mxGeometry x="40" y="539" width="130" height="30" as="geometry"/>
                </mxCell>
                <mxCell id="10" value="Level 4" style="text;strokeColor=none;align=center;fillColor=none;html=1;verticalAlign=middle;whiteSpace=wrap;rounded=0;fontSize=16;fontStyle=1" vertex="1" parent="1">
                    <mxGeometry x="40" y="739" width="130" height="30" as="geometry"/>
                </mxCell>
                <mxCell id="11" value="DevOps Advanced" style="text;strokeColor=none;align=center;fillColor=none;html=1;verticalAlign=middle;whiteSpace=wrap;rounded=0;fontSize=15;" vertex="1" parent="1">
                    <mxGeometry x="40" y="769" width="130" height="30" as="geometry"/>
                </mxCell>
                <mxCell id="12" value="" style="endArrow=none;html=1;fontSize=16;" edge="1" parent="1">
                    <mxGeometry width="50" height="50" relative="1" as="geometry">
                        <mxPoint x="200" y="850" as="sourcePoint"/>
                        <mxPoint x="200" y="70" as="targetPoint"/>
                    </mxGeometry>
                </mxCell>
                <mxCell id="13" value="Week 1" style="text;strokeColor=none;align=center;fillColor=none;html=1;verticalAlign=middle;whiteSpace=wrap;rounded=0;fontSize=16;fontStyle=1" vertex="1" parent="1">
                    <mxGeometry x="240" y="90" width="100" height="30" as="geometry"/>
                </mxCell>
                <mxCell id="14" value="Week 1-2" style="text;strokeColor=none;align=center;fillColor=none;html=1;verticalAlign=middle;whiteSpace=wrap;rounded=0;fontSize=16;fontStyle=1" vertex="1" parent="1">
                    <mxGeometry x="399" y="90" width="130" height="30" as="geometry"/>
                </mxCell>
                <mxCell id="15" value="Week 3" style="text;strokeColor=none;align=center;fillColor=none;html=1;verticalAlign=middle;whiteSpace=wrap;rounded=0;fontSize=16;fontStyle=1" vertex="1" parent="1">
                    <mxGeometry x="570" y="90" width="130" height="30" as="geometry"/>
                </mxCell>
                <mxCell id="25" value="Week 1" style="text;strokeColor=none;align=center;fillColor=none;html=1;verticalAlign=middle;whiteSpace=wrap;rounded=0;fontSize=16;fontStyle=1" vertex="1" parent="1">
                    <mxGeometry x="240" y="269" width="100" height="30" as="geometry"/>
                </mxCell>
                <mxCell id="26" value="Week 1-2" style="text;strokeColor=none;align=center;fillColor=none;html=1;verticalAlign=middle;whiteSpace=wrap;rounded=0;fontSize=16;fontStyle=1" vertex="1" parent="1">
                    <mxGeometry x="399" y="269" width="130" height="30" as="geometry"/>
                </mxCell>
                <mxCell id="27" value="Week 3" style="text;strokeColor=none;align=center;fillColor=none;html=1;verticalAlign=middle;whiteSpace=wrap;rounded=0;fontSize=16;fontStyle=1" vertex="1" parent="1">
                    <mxGeometry x="570" y="269" width="130" height="30" as="geometry"/>
                </mxCell>
                <mxCell id="28" value="Week 1" style="text;strokeColor=none;align=center;fillColor=none;html=1;verticalAlign=middle;whiteSpace=wrap;rounded=0;fontSize=16;fontStyle=1" vertex="1" parent="1">
                    <mxGeometry x="240" y="479" width="100" height="30" as="geometry"/>
                </mxCell>
                <mxCell id="29" value="Week 1-2" style="text;strokeColor=none;align=center;fillColor=none;html=1;verticalAlign=middle;whiteSpace=wrap;rounded=0;fontSize=16;fontStyle=1" vertex="1" parent="1">
                    <mxGeometry x="399" y="479" width="130" height="30" as="geometry"/>
                </mxCell>
                <mxCell id="30" value="Week 3" style="text;strokeColor=none;align=center;fillColor=none;html=1;verticalAlign=middle;whiteSpace=wrap;rounded=0;fontSize=16;fontStyle=1" vertex="1" parent="1">
                    <mxGeometry x="570" y="479" width="130" height="30" as="geometry"/>
                </mxCell>
                <mxCell id="31" value="Week 1" style="text;strokeColor=none;align=center;fillColor=none;html=1;verticalAlign=middle;whiteSpace=wrap;rounded=0;fontSize=16;fontStyle=1" vertex="1" parent="1">
                    <mxGeometry x="240" y="699" width="100" height="30" as="geometry"/>
                </mxCell>
                <mxCell id="32" value="Week 1-2" style="text;strokeColor=none;align=center;fillColor=none;html=1;verticalAlign=middle;whiteSpace=wrap;rounded=0;fontSize=16;fontStyle=1" vertex="1" parent="1">
                    <mxGeometry x="399" y="699" width="130" height="30" as="geometry"/>
                </mxCell>
                <mxCell id="33" value="Week 3" style="text;strokeColor=none;align=center;fillColor=none;html=1;verticalAlign=middle;whiteSpace=wrap;rounded=0;fontSize=16;fontStyle=1" vertex="1" parent="1">
                    <mxGeometry x="570" y="699" width="130" height="30" as="geometry"/>
                </mxCell>
                <mxCell id="38" value="" style="group" vertex="1" connectable="0" parent="1">
                    <mxGeometry x="240" y="197.5" width="471" height="55" as="geometry"/>
                </mxCell>
                <mxCell id="36" value="Month 1" style="rounded=0;whiteSpace=wrap;html=1;fontSize=16;" vertex="1" parent="38">
                    <mxGeometry y="12.5" width="430" height="30" as="geometry"/>
                </mxCell>
                <mxCell id="37" value="" style="triangle;whiteSpace=wrap;html=1;fontSize=16;" vertex="1" parent="38">
                    <mxGeometry x="430" width="41" height="55" as="geometry"/>
                </mxCell>
                <mxCell id="39" value="" style="group" vertex="1" connectable="0" parent="1">
                    <mxGeometry x="240" y="404" width="471" height="55" as="geometry"/>
                </mxCell>
                <mxCell id="40" value="Month 2" style="rounded=0;whiteSpace=wrap;html=1;fontSize=16;" vertex="1" parent="39">
                    <mxGeometry y="12.5" width="430" height="30" as="geometry"/>
                </mxCell>
                <mxCell id="41" value="" style="triangle;whiteSpace=wrap;html=1;fontSize=16;" vertex="1" parent="39">
                    <mxGeometry x="430" width="41" height="55" as="geometry"/>
                </mxCell>
                <mxCell id="42" value="" style="group" vertex="1" connectable="0" parent="1">
                    <mxGeometry x="240" y="620" width="471" height="55" as="geometry"/>
                </mxCell>
                <mxCell id="43" value="Month 3" style="rounded=0;whiteSpace=wrap;html=1;fontSize=16;" vertex="1" parent="42">
                    <mxGeometry y="12.5" width="430" height="30" as="geometry"/>
                </mxCell>
                <mxCell id="44" value="" style="triangle;whiteSpace=wrap;html=1;fontSize=16;" vertex="1" parent="42">
                    <mxGeometry x="430" width="41" height="55" as="geometry"/>
                </mxCell>
                <mxCell id="45" value="" style="group" vertex="1" connectable="0" parent="1">
                    <mxGeometry x="240" y="820" width="471" height="55" as="geometry"/>
                </mxCell>
                <mxCell id="46" value="Month 4" style="rounded=0;whiteSpace=wrap;html=1;fontSize=16;" vertex="1" parent="45">
                    <mxGeometry y="12.5" width="430" height="30" as="geometry"/>
                </mxCell>
                <mxCell id="47" value="" style="triangle;whiteSpace=wrap;html=1;fontSize=16;" vertex="1" parent="45">
                    <mxGeometry x="430" width="41" height="55" as="geometry"/>
                </mxCell>
            </root>
        </mxGraphModel>
    </diagram>
</mxfile>